# xmcd
#
# Track frame offsets: 
#        150
#        33314
#        58344
#        77327
#
# Disc length: 1246 seconds
#
# Revision: 1
# Processed by: cddbd v1.5.2PL0 Copyright (c) Steve Scherf et al.
# Submitted via: ExactAudioCopy v0.99pb5
#
DISCID=2804dc04
DTITLE=Various Artist - Cool and Hot
DYEAR=2002
DGENRE=Blues
TTITLE0=Jacintha - Danni Boy
TTITLE1=Roy Gaines - T-Bone Blues
TTITLE2=Jacintha - In the Wee Sall Hours of Morning
TTITLE3=Roy Gaines - Stormy Monday
EXTD=
EXTT0=
EXTT1=
EXTT2=
EXTT3=
PLAYORDER=
